<svg id="BACKGROUND_1" data-name="BACKGROUND 1" xmlns="http://www.w3.org/2000/svg" viewBox="0 0 362.89 149.76"><defs><style>.cls-1{fill:#fff8e8;}</style></defs><title>birds</title><path class="cls-1" d="M396.44,245.28c5.12-5.48,16.61-3.12,16.61-3.12-13.58.12-17.5,9.08-17.5,9.08s-1.14-9.71-14.1-13.79C381.45,237.45,393.13,238.54,396.44,245.28Z" transform="translate(-50.16 -201.65)"/><path class="cls-1" d="M399.72,349.49c1.65-1.77,5.36-1,5.36-1-4.39,0-5.65,2.93-5.65,2.93s-.37-3.13-4.55-4.45C394.88,347,398.65,347.31,399.72,349.49Z" transform="translate(-50.16 -201.65)"/><path class="cls-1" d="M331.16,289.86c.36-2.39,3.84-3.87,3.84-3.87-3.58,2.52-3,5.62-3,5.62s-2.09-2.37-6.28-1.08C325.74,290.53,329.05,288.68,331.16,289.86Z" transform="translate(-50.16 -201.65)"/><path class="cls-1" d="M65.36,218.66c6.39-5.23,18.58-1,18.58-1C69.1,215.84,63.52,225,63.52,225s.18-10.76-13.36-17.1C50.16,207.94,62.74,210.84,65.36,218.66Z" transform="translate(-50.16 -201.65)"/><path class="cls-1" d="M331.09,248.59c2-7.22,13.32-10.4,13.32-10.4C332.4,244.54,333,254.3,333,254.3s-5.46-8.11-18.85-5.79C314.18,248.51,325.06,244.12,331.09,248.59Z" transform="translate(-50.16 -201.65)"/><path class="cls-1" d="M107,262.42c3-4.9,12-4.88,12-4.88-10.19,2.17-11.77,9.5-11.77,9.5s-2.34-7.12-12.7-8.21C94.54,258.83,103.48,257.87,107,262.42Z" transform="translate(-50.16 -201.65)"/><path class="cls-1" d="M131.77,212.05c2-7.22,13.33-10.4,13.33-10.4-12,6.35-11.38,16.11-11.38,16.11s-5.47-8.11-18.85-5.79C114.87,212,125.75,207.58,131.77,212.05Z" transform="translate(-50.16 -201.65)"/><path class="cls-1" d="M204,244.45c5.47-5.13,16.78-2,16.78-2-13.56-.76-18.06,7.92-18.06,7.92s-.49-9.77-13.16-14.69C189.6,235.66,201.19,237.52,204,244.45Z" transform="translate(-50.16 -201.65)"/><path class="cls-1" d="M267.5,214.73c2-7.15,13.2-10.3,13.2-10.3-11.89,6.29-11.27,16-11.27,16s-5.42-8-18.68-5.74C250.75,214.65,261.53,210.31,267.5,214.73Z" transform="translate(-50.16 -201.65)"/></svg>